<svg xmlns="http://www.w3.org/2000/svg" viewBox="0 0 1000 179"><defs><style>.cls-1{fill:#18ba5d;}.cls-2{fill:#fff;}</style></defs><g id="Layer_2" data-name="Layer 2"><g id="Layer_1-2" data-name="Layer 1"><path class="cls-1" d="M998.9,120a40.1,40.1,0,0,0-12.3-23.2,19.8,19.8,0,0,0,4.6-9.4l3.4-16a20.9,20.9,0,0,0-12.9-23.7,96,96,0,0,0-21.2-5.5l-2.9-.3a123,123,0,0,0-13.5-.9h0a94.5,94.5,0,0,0-15.6,1.4h-.4a48.4,48.4,0,0,0-25.9,14.9,29.4,29.4,0,0,0-3.5,4.4l-1.6-1.9H897C885.4,47.5,869.5,41,851,41s-32.2,5.6-43.7,16.6a21,21,0,0,0-5.2-7.8,30.3,30.3,0,0,0,6.6-19.1,30.3,30.3,0,1,0-60.6,0,30.9,30.9,0,0,0,6.6,19.1,26.6,26.6,0,0,0-2.6,3.1,3.9,3.9,0,0,0-1-.8,61.5,61.5,0,0,0-21.5-9.6,53.9,53.9,0,0,0-13-1.5h-4.5a63.4,63.4,0,0,0-26.7,6.1,59.3,59.3,0,0,0-19.7,15.2h-.2c0,.1-.1.2-.2.3a42.8,42.8,0,0,0-3.8-6.2C656.1,49.5,645.8,41,627.3,41a55.2,55.2,0,0,0-21.4,4.2l-5.5,2.5a18.1,18.1,0,0,0-2.9-1.9,20.1,20.1,0,0,0-6.1-2.1l-1.3-.2H569.8a17.8,17.8,0,0,0-10.5,3.4,17.5,17.5,0,0,0-10.6-3.5H521.9a18.1,18.1,0,0,0-13.3,5.9,16.3,16.3,0,0,0-1.7,2,15.6,15.6,0,0,0-1.6-2,18.4,18.4,0,0,0-13.4-5.9H465.1a18.2,18.2,0,0,0-13.3,5.9,17.5,17.5,0,0,0-2.8,3.9C443.1,47,433.3,41,417.7,41a55.2,55.2,0,0,0-21.4,4.2l-5.5,2.5a15.3,15.3,0,0,0-3-1.9,18.8,18.8,0,0,0-6-2.1l-1.3-.2H360.1a18.1,18.1,0,0,0-13.6,6.3,19.2,19.2,0,0,0-3.3,5.5H343a47.3,47.3,0,0,0-19.7-10.8,90.7,90.7,0,0,0-24-2.9,80.8,80.8,0,0,0-16.7,1.7,91.7,91.7,0,0,0-14.9,4.7h-.3l-.2.2c-3.6,1.6-6.5,3-9,4.4V18.6a19.7,19.7,0,0,0-3.6-11.3,17.1,17.1,0,0,0-14-7.3H215.4a16.8,16.8,0,0,0-13.6,6.7A29.8,29.8,0,0,0,182.9,0a30.6,30.6,0,0,0-30.3,30.7,30.9,30.9,0,0,0,6.6,19.1,23.7,23.7,0,0,0-3.2,3.9C150.2,47.4,140.6,41,125,41a48.9,48.9,0,0,0-14.9,2.3h-.3a63.8,63.8,0,0,0-12.7,5.9l-3.4-2.5A37.1,37.1,0,0,0,73.4,41a52.9,52.9,0,0,0-21,4.2l-4.5,2.2a11.4,11.4,0,0,0-2.3-1.5,18,18,0,0,0-8.9-2.5H18.4A18.1,18.1,0,0,0,4.8,49.6,18.7,18.7,0,0,0,0,62.5v94.8a19.6,19.6,0,0,0,4.8,13.1,18.1,18.1,0,0,0,13.6,6.2H44.3a17.9,17.9,0,0,0,13.4-6.1,18.3,18.3,0,0,0,13.5,6.1h26a17.9,17.9,0,0,0,13.4-6.1,18.2,18.2,0,0,0,13.5,6.1H150a17.8,17.8,0,0,0,11.3-4.1,19.6,19.6,0,0,0,12,4.1h19.2a20.1,20.1,0,0,0,12-4,16.5,16.5,0,0,0,10.9,4h25.2a17,17,0,0,0,13.6-6.8l.5-.7c7.7,5.3,17.4,8,29,8a64.3,64.3,0,0,0,20.8-3.4l3.2-1.1.9.7a18,18,0,0,0,10.8,3.6h20.7a17.3,17.3,0,0,0,10.3-3.3,17.6,17.6,0,0,0,9.7,3H387a18.2,18.2,0,0,0,13.3-5.9,16.3,16.3,0,0,0,1.7-2,15.6,15.6,0,0,0,1.6,2,18.3,18.3,0,0,0,8.2,5.1l2.5.8h29.5a18.2,18.2,0,0,0,13.3-5.9,18.8,18.8,0,0,0,2.7-3.6c5.8,6,15.4,12,31,12a56.4,56.4,0,0,0,21.5-4l4.6-2.1.4.2a17.9,17.9,0,0,0,10.8,3.7h20.7a17.8,17.8,0,0,0,10.6-3.6,17.5,17.5,0,0,0,10.4,3.4h26.8a18.1,18.1,0,0,0,13.3-5.9,16.3,16.3,0,0,0,1.7-2,15.6,15.6,0,0,0,1.6,2,18.3,18.3,0,0,0,8.2,5.1l2.5.8h29.5a18.2,18.2,0,0,0,13.3-5.9,18.4,18.4,0,0,0,4.8-9.4,56.3,56.3,0,0,0,13.9,9.3,61.9,61.9,0,0,0,26.7,6h4.4a54.1,54.1,0,0,0,13.1-1.5,59.6,59.6,0,0,0,21.2-9.3,20.7,20.7,0,0,0,18,10.9H788a20.8,20.8,0,0,0,20-15.9c11.3,10.5,25.7,15.9,43,15.9s33.1-6,44.4-17.3a22.5,22.5,0,0,0,4.5,3.5c16.1,9.3,30.8,13.3,49.3,13.3l8.9-.3h.4a49.4,49.4,0,0,0,27.3-12.1C997.7,153,1002.3,137.5,998.9,120Z"/><path class="cls-2" d="M182.9,16.1a14.5,14.5,0,0,1,14.2,14.6,14.2,14.2,0,1,1-28.3,0A14.4,14.4,0,0,1,182.9,16.1Z"/><path class="cls-2" d="M192.5,60.2a4.9,4.9,0,0,1,4.6,5.1v90a4.9,4.9,0,0,1-4.6,5.1H173.3c-2.5,0-4.5-2.3-4.5-5.1v-90c0-2.8,2-5.1,4.5-5.1Z"/><path class="cls-2" d="M240.6,16.1c.2,0,.4,0,.8.5a3.2,3.2,0,0,1,.7,2V157.9a2.9,2.9,0,0,1-.6,1.9h-.1c-.4.4-.6.4-.8.4H215.4a1,1,0,0,1-.9-.4,4,4,0,0,1-.8-2.1V18.6a2.4,2.4,0,0,1,.6-1.8h.2a1.1,1.1,0,0,1,.9-.5Z"/><path class="cls-2" d="M125,57.2c18.3,0,27.2,12.1,27.2,37.1v63c0,1.4-.3,2-.7,2.3a1.9,1.9,0,0,1-1.5.8H124.1a2,2,0,0,1-1.6-.8,3.9,3.9,0,0,1-.7-2.3V100.4a32.3,32.3,0,0,0-1.1-9.3c-1.3-4.3-3.9-4.9-5.3-4.9a15.9,15.9,0,0,0-5.1.8,29,29,0,0,0-5,2.4l-1.7,1-1.1.5a21.1,21.1,0,0,0-2.2,1.4l-.9.7v64.3a3,3,0,0,1-.7,2.3,1.9,1.9,0,0,1-1.5.8h-26a1.9,1.9,0,0,1-1.5-.8,3.3,3.3,0,0,1-.7-2.3V100.4a28.7,28.7,0,0,0-1.2-9.3c-1.2-4.3-3.8-4.9-5.3-4.9a21.2,21.2,0,0,0-10.4,3h-.2l-1.8,1.2-.6.3a16.8,16.8,0,0,0-2.3,1.8l-.8.7v64c0,1.4-.3,2-.7,2.3a1.8,1.8,0,0,1-1.4.8H18.4a1.9,1.9,0,0,1-1.6-.8,3.3,3.3,0,0,1-.7-2.3V62.5a2.9,2.9,0,0,1,.7-2.2,1.9,1.9,0,0,1,1.6-.8H36.6l1.1.4c.7.4.8.7.8.8l3.8,7,1.3,2.5,2.2-1.9a46.9,46.9,0,0,1,12.9-8.2,36.1,36.1,0,0,1,14.7-2.9,20.8,20.8,0,0,1,11.5,3.1,22.9,22.9,0,0,1,7.7,8.4l1.3,2.4L96,69.5l4.2-2.9,2.1-1.4,2.9-1.9a48.8,48.8,0,0,1,9.8-4.6A32.7,32.7,0,0,1,125,57.2Z"/><path class="cls-2" d="M778.4,16.1a14.5,14.5,0,0,1,14.2,14.6,14.2,14.2,0,1,1-28.3,0A14.4,14.4,0,0,1,778.4,16.1Z"/><path class="cls-2" d="M885.2,70.9c-8.6-9.1-20.1-13.7-34.3-13.7s-25.4,4.4-34.2,13.7-12.8,22-12.8,38,4.3,28.5,12.9,37.8,19.7,13.7,34.1,13.7,25.9-4.6,34.3-13.7,12.9-22,12.9-37.8S893.8,80.1,885.2,70.9Zm-20.4,54.7c-3.1,4.1-7.8,6.2-13.9,6.2a17,17,0,0,1-13.8-6.2c-3.2-4.1-4.9-9.7-4.9-16.8S833.9,96,837.1,92s7.9-6.3,13.8-6.3,10.6,2.1,13.9,6.3,5,9.6,5,16.8S868.1,121.6,864.8,125.6Z"/><path class="cls-2" d="M417.7,57.2c9.7,0,16.6,3,21.3,9.1s7.2,15.7,7.2,28v62.9a2.9,2.9,0,0,1-.8,2.3,2.1,2.1,0,0,1-1.6.8H416.4a3.3,3.3,0,0,1-1.1-.8,3.2,3.2,0,0,1-.7-2.3V100.4a25,25,0,0,0-1.5-9.4c-1.6-4.2-4.5-4.8-6.1-4.8a23.2,23.2,0,0,0-5.8.8,39.3,39.3,0,0,0-5.6,2.4l-6.2,3.1v64.8a2.9,2.9,0,0,1-.8,2.3,2.3,2.3,0,0,1-1.6.8H360.1a1.7,1.7,0,0,1-1.4-.7,3.8,3.8,0,0,1-.8-2.4V62.6a3.1,3.1,0,0,1,.8-2.2,1.9,1.9,0,0,1,1.4-.8h19.1l1.1.5a2.1,2.1,0,0,1,1,.8l3.6,6.8,1.3,2.5,2.2-1.8a50.4,50.4,0,0,1,13.9-8.2A39.9,39.9,0,0,1,417.7,57.2Z"/><path class="cls-2" d="M403.7,91.4Z"/><path class="cls-2" d="M613.3,91.4Z"/><path class="cls-2" d="M788,60.2a4.9,4.9,0,0,1,4.6,5.1v90a4.9,4.9,0,0,1-4.6,5.1H768.8c-2.5,0-4.5-2.3-4.5-5.1v-90c0-2.8,2-5.1,4.5-5.1Z"/><path class="cls-2" d="M944.1,57.1h0a114.7,114.7,0,0,1,11.6.8l2.7.3a78.2,78.2,0,0,1,17.4,4.5,4.8,4.8,0,0,1,3,5.4l-3.4,16a4.7,4.7,0,0,1-4.7,3.8h-1l-1.9-.4-4.3-1.8-3.3-1.3c-5.3-2.1-8-2.8-11.2-3h-1.7a15.5,15.5,0,0,0-3.7.4c-2.9.4-5,1.9-5.7,4.1a5.7,5.7,0,0,0,1.7,5.9l1.2.9c.9.6,3.9,1.6,10.5,3.8,3.4,1.1,6.9,2.3,8.9,3.1l.9.3c13.4,5.5,20.4,12.9,21.9,23.1h0c2.5,12.1-.2,21.8-8,28.7a32.7,32.7,0,0,1-17.8,8.1c-2.9.2-5.5.2-8,.2-15.7,0-27.6-3.2-41.2-11.1a4.7,4.7,0,0,1-2.4-5.7l5-15.5a4.7,4.7,0,0,1,4.6-3.4l1.5.2,1.8.6c8.8,4.8,20.3,8,28.6,8h2a5.5,5.5,0,0,0,5.2-4.2,6.9,6.9,0,0,0-3.8-7.4h-.3l-3.4-1.3-3.2-1.2-8.6-3.1-2.4-.8a40.3,40.3,0,0,1-18.5-10.6,27,27,0,0,1-4.8-6.5v-.2l-.3-1c-3.4-11.3-1.6-20.8,5.1-28.3A33.6,33.6,0,0,1,931,58.3,88,88,0,0,1,944.1,57.1Z"/><path class="cls-2" d="M548.7,59.6a1.5,1.5,0,0,1,1.4.7,3.3,3.3,0,0,1,.8,2.2v95.8a2.7,2.7,0,0,1-.7,1.6,1.7,1.7,0,0,1-1.4.7H528.1a1.7,1.7,0,0,1-1.2-.4c-.7-.5-.8-.8-.8-.8v-.5l-2.5-5.9-1.2-2.7-2.3,1.8a62.6,62.6,0,0,1-13.9,8,39.8,39.8,0,0,1-15.3,2.7c-9.4,0-16.4-2.9-21-8.8s-7.1-14.7-7.1-26.6V62.5a2.9,2.9,0,0,1,.8-2.1,2.1,2.1,0,0,1,1.6-.8h26.8a2,2,0,0,1,1.6.8,2.9,2.9,0,0,1,.8,2.1v56.8c0,9.6,2.8,14.4,8.2,14.4a18,18,0,0,0,3.7-.5,20.9,20.9,0,0,0,4.9-1.6l8.4-3.6V62.5a2.9,2.9,0,0,1,.8-2.1,1.9,1.9,0,0,1,1.6-.8Z"/><path class="cls-2" d="M557.9,157.5Z"/><path class="cls-2" d="M627.3,57.2c9.7,0,16.7,3,21.3,9.1s7.2,15.7,7.2,28v62.9a2.9,2.9,0,0,1-.8,2.3,1.9,1.9,0,0,1-1.6.8H626a3.3,3.3,0,0,1-1.1-.8,3.2,3.2,0,0,1-.7-2.3V100.4a25,25,0,0,0-1.5-9.4c-1.6-4.2-4.5-4.8-6.1-4.8a23.2,23.2,0,0,0-5.8.8,39.3,39.3,0,0,0-5.6,2.4L599,92.5v64.8a2.9,2.9,0,0,1-.8,2.3,2.3,2.3,0,0,1-1.6.8H569.7a1.8,1.8,0,0,1-1.4-.7,3.7,3.7,0,0,1-.7-2.4V62.6a3.1,3.1,0,0,1,.7-2.2,1.9,1.9,0,0,1,1.4-.8h19.2l1,.5a2.1,2.1,0,0,1,1,.8l3.6,6.8,1.3,2.5,2.2-1.8a50.4,50.4,0,0,1,13.9-8.2A39.9,39.9,0,0,1,627.3,57.2Z"/><path class="cls-2" d="M339.7,79.6a30,30,0,0,0-7.6-12.7,32.3,32.3,0,0,0-13.2-7.1,74.2,74.2,0,0,0-19.6-2.3A61.7,61.7,0,0,0,286,58.9a59.6,59.6,0,0,0-12,3.8,90.4,90.4,0,0,0-9.5,4.8,20.5,20.5,0,0,0-5,3.7c-.1,0-.4.5-.6,1.5a3,3,0,0,0,0,1.9l6,15.7a2.4,2.4,0,0,0,1.5,1.6l.8.2a1.3,1.3,0,0,0,.8-.3h.2l5.7-2.9,2.8-1.3,3.9-1.7a34.7,34.7,0,0,1,8.3-2.7,47.3,47.3,0,0,1,8.3-.7c4.3,0,7.7,1.1,10.2,3.2s4.1,5.6,4.2,10v2.5l-2.5-.2-13.3-.7h-3.2a45.3,45.3,0,0,0-14.1,2.1,47.4,47.4,0,0,0-14,7.1c-8.2,6.4-12.2,14.4-12.2,24.4s2.7,16.7,8,22.1,13.1,8.2,23.4,8.2a50.8,50.8,0,0,0,15.8-2.6,81.3,81.3,0,0,0,14.7-6.6h0l.6,1.5,2.5,5.9v.4s.1.3.8.8a1.7,1.7,0,0,0,1.2.5h20.7a1.9,1.9,0,0,0,1.5-.7,4.9,4.9,0,0,0,.7-1.6V137h.1V99.1A63.9,63.9,0,0,0,339.7,79.6Zm-30.5,53.3-1.1.6-2.1,1.1h-.2a35.6,35.6,0,0,1-14.2,2.8c-5.3,0-11.7-1.3-11.7-7.5,0-12.6,22.9-12.6,30.4-12.6h2.9V131l-1.3.6-1.3.6Z"/><path class="cls-2" d="M726.2,125.6c-3.1,4.1-7.7,6.2-13.5,6.2s-10.2-2-13.4-6.2-4.8-9.7-4.8-16.8S696.1,96,699.3,92s7.7-6.3,13.4-6.3A16.2,16.2,0,0,1,726.2,92l1.2,1.8a5,5,0,0,0,4.2,2.5l20.5-2a3.9,3.9,0,0,0,3.7-4.8,39.4,39.4,0,0,0-9.9-18.6c-8.3-9.1-19.5-13.8-33.2-13.8s-24.6,4.5-33.1,13.8-12.5,22-12.5,38,4.2,28.6,12.5,37.8,19.1,13.7,33.1,13.7,25-4.6,33.2-13.7A42.8,42.8,0,0,0,756,127.2a3.9,3.9,0,0,0-3.7-4.8l-20.7-1.1a4.9,4.9,0,0,0-4.2,2.4A12.2,12.2,0,0,1,726.2,125.6Z"/></g></g></svg>